{"title":"Scent of a Woman 1992 DVD9rip English Klam","uid":5935861,"size":2527562122,"categoryP":"video","categoryS":"movies","magnet":"?xt=urn:btih:f802f214a37c2f91a99515697a5428a8c5687497&amp;dn=Scent+of+a+Woman+1992+DVD9rip+English+Klam&amp;tr=udp%3A%2F%2Ftracker.openbittorrent.com%3A80&amp;tr=udp%3A%2F%2Fopen.demonii.com%3A1337&amp;tr=udp%3A%2F%2Ftracker.coppersurfer.tk%3A6969&amp;tr=udp%3A%2F%2Fexodus.desync.com%3A6969","seeders":0,"leechers":0,"uploader":"Klambake","files":5,"time":1288946990,"description":"With: Al Pacino, Chris O'Donnell en Philip Seymour Hoffman\n\nFrank is a retired Lt Col in the US army. He's blind and impossible to get along with. Charlie is at school and is looking forward to going to university; to help pay for a trip home for Christmas, he agrees to look after Frank over thanksgiving. Frank's niece says this will be easy money, but she didn't reckon on Frank spending his thanksgiving in New York. \n\nGeneral:\n\nComplete name                    : Klambake\\Scent\\of a Woman.avi\nFormat                           : AVI\nFormat/Info                      : Audio Video Interleave\nFile size                        : 2.35 GiB\nDuration                         : 2h 29mn\nOverall bit rate                 : 2 247 Kbps\n\nVideo:\n\nFormat                           : MPEG-4 Visual\nFormat profile                   : Simple@L3\nFormat settings, BVOP            : No\nFormat settings, QPel            : No\nFormat settings, GMC             : No warppoints\nFormat settings, Matrix          : Default (H.263)\nCodec ID                         : XVID\nCodec ID/Hint                    : XviD\nDuration                         : 2h 29mn\nBit rate                         : 2 044 Kbps\nWidth                            : 720 pixels\nHeight                           : 576 pixels\nDisplay aspect ratio             : 5:4\nFrame rate                       : 25.000 fps\nStandard                         : PAL\nColor space                      : YUV\nChroma subsampling               : 4:2:0\nBit depth                        : 8 bits\nScan type                        : Progressive\nBits/(Pixel*Frame)               : 0.197\nStream size                      : 2.14 GiB (91%)\nWriting library                  : XviD 1.1.2 (UTC 2006-11-01)\n\nAudio:\n\nFormat                           : AC-3\nFormat/Info                      : Audio Coding 3\nFormat profile                   : Dolby Digital\nMode extension                   : CM (complete main)\nCodec ID                         : 2000\nDuration                         : 2h 29mn\nBit rate mode                    : Constant\nBit rate                         : 192 Kbps\nChannel(s)                       : 2 channels\nChannel positions                : Front: L R\nSampling rate                    : 48.0 KHz\nBit depth                        : 16 bits\nStream size                      : 206 MiB (9%)\nAlignment                        : Aligned on interleaves\nInterleave, duration             : 32 ms (0.80 video frame)","torrent":{"xt":"urn:btih:f802f214a37c2f91a99515697a5428a8c5687497","amp;dn":"Scent+of+a+Woman+1992+DVD9rip+English+Klam","amp;tr":["udp%3A%2F%2Ftracker.openbittorrent.com%3A80","udp%3A%2F%2Fopen.demonii.com%3A1337","udp%3A%2F%2Ftracker.coppersurfer.tk%3A6969","udp%3A%2F%2Fexodus.desync.com%3A6969"],"infoHash":"f802f214a37c2f91a99515697a5428a8c5687497","infoHashBuffer":{"type":"Buffer","data":[248,2,242,20,163,124,47,145,169,149,21,105,122,84,40,168,197,104,116,151]},"announce":[],"urlList":[]}}